<svg xmlns="http://www.w3.org/2000/svg" width="500" height="500" style="width:100%;height:100%;transform:translate3d(0,0,0);content-visibility:visible" viewBox="0 0 500 500"><defs><clipPath id="a"><path d="M0 0h500v500H0z"/></clipPath><clipPath id="c"><path d="M0 0h500v500H0z"/></clipPath><clipPath id="b"><path d="M0 0h500v500H0z"/></clipPath></defs><g clip-path="url(#a)"><g clip-path="url(#b)" opacity="0" style="display:block"><g opacity="1" style="display:block"><path fill="none" stroke="#121331" stroke-linecap="round" stroke-linejoin="round" stroke-width="12" d="M324.731 410.119H175.269c-6.6 0-12-5.4-12-12V101.881c0-6.6 5.4-12 12-12h149.462c6.6 0 12 5.4 12 12v296.238c0 6.6-5.4 12-12 12z" opacity="1"/><g opacity="1"><path fill="#121331" d="M203.236 89.88c5.735 0 10.791 2.203 12.438 5.42l3.03 5.917c1.292 2.524 5.259 4.253 9.76 4.253h43.072c4.501 0 8.468-1.729 9.76-4.253l3.03-5.917c1.647-3.217 6.703-5.42 12.438-5.42"/><path fill="none" stroke="#121331" stroke-linecap="round" stroke-linejoin="round" stroke-width="12" d="M203.236 89.88c5.735 0 10.791 2.203 12.438 5.42l3.03 5.917c1.292 2.524 5.259 4.253 9.76 4.253h43.072c4.501 0 8.468-1.729 9.76-4.253l3.03-5.917c1.647-3.217 6.703-5.42 12.438-5.42"/></g><path fill="none" stroke="#121331" stroke-linecap="round" stroke-linejoin="round" stroke-width="12" d="M210.258 390.47h79.484" opacity="1"/></g><path fill="none" stroke="#08A88A" stroke-linecap="round" stroke-linejoin="round" stroke-width="12" d="M215.069 231.345v41.3l-26.892-41.3v41.3m77.501-41.3h-27.534v41.3m.003-20.646h16.808m58.961-15.961a20.912 20.912 0 0 0-13.65-5.043c-11.597 0-21 9.403-21 21s9.403 21 21 21c5.21 0 9.978-1.898 13.65-5.043" opacity="1" style="display:block"/><g opacity="1" style="display:block"><path fill="none" stroke="#08A88A" stroke-linecap="round" stroke-linejoin="round" stroke-width="12" d="M400.898 194.476c11.972 15.305 19.106 34.582 19.106 55.524s-7.134 40.219-19.106 55.524m-32.596-81.794a42.49 42.49 0 0 1 9.04 26.27 42.49 42.49 0 0 1-9.04 26.27" opacity="1"/><g opacity="1"><path fill="none" stroke="#08A88A" stroke-linecap="round" stroke-linejoin="round" stroke-width="12" d="M339.59 249.5a.807.807 0 0 1 0 1" opacity="0"/></g><g opacity="1"><path fill="none" stroke="#08A88A" stroke-linecap="round" stroke-linejoin="round" stroke-width="12" d="M339.59 249.5a.807.807 0 0 1 0 1" opacity="0"/></g><g opacity="1"><path fill="none" stroke="#08A88A" stroke-linecap="round" stroke-linejoin="round" stroke-width="12" d="M339.59 249.5a.807.807 0 0 1 0 1" opacity="0"/></g><g opacity="1"><path fill="none" stroke="#08A88A" stroke-linecap="round" stroke-linejoin="round" stroke-width="12" d="M339.59 249.5a.807.807 0 0 1 0 1" opacity="0"/></g><g opacity="1"><path fill="none" stroke="#08A88A" stroke-linecap="round" stroke-linejoin="round" stroke-width="12" d="M339.59 249.5a.807.807 0 0 1 0 1" opacity="0"/></g><g opacity="1"><path fill="none" stroke="#08A88A" stroke-linecap="round" stroke-linejoin="round" stroke-width="12" d="M339.59 249.5a.807.807 0 0 1 0 1" opacity="0"/></g></g><g opacity="1" style="display:block"><path fill="none" stroke="#08A88A" stroke-linecap="round" stroke-linejoin="round" stroke-width="12" d="M94.894 305.524C82.922 290.219 75.787 270.942 75.787 250s7.135-40.219 19.107-55.524m32.596 81.794a42.49 42.49 0 0 1-9.04-26.27 42.49 42.49 0 0 1 9.04-26.27" opacity="1"/><g opacity="1"><path fill="none" stroke="#08A88A" stroke-linecap="round" stroke-linejoin="round" stroke-width="12" d="M156.202 250.5a.807.807 0 0 1 0-1" opacity="0"/></g><g opacity="1"><path fill="none" stroke="#08A88A" stroke-linecap="round" stroke-linejoin="round" stroke-width="12" d="M156.202 250.5a.807.807 0 0 1 0-1" opacity="0"/></g><g opacity="1"><path fill="none" stroke="#08A88A" stroke-linecap="round" stroke-linejoin="round" stroke-width="12" d="M156.202 250.5a.807.807 0 0 1 0-1" opacity="0"/></g><g opacity="1"><path fill="none" stroke="#08A88A" stroke-linecap="round" stroke-linejoin="round" stroke-width="12" d="M156.202 250.5a.807.807 0 0 1 0-1" opacity="0"/></g><g opacity="1"><path fill="none" stroke="#08A88A" stroke-linecap="round" stroke-linejoin="round" stroke-width="12" d="M156.202 250.5a.807.807 0 0 1 0-1" opacity="0"/></g><g opacity="1"><path fill="none" stroke="#08A88A" stroke-linecap="round" stroke-linejoin="round" stroke-width="12" d="M156.202 250.5a.807.807 0 0 1 0-1" opacity="0"/></g></g></g><g clip-path="url(#c)" style="display:block"><g style="display:block"><path fill="none" stroke="#121331" stroke-linecap="round" stroke-linejoin="round" stroke-width="12" d="M324.731 410.119H175.269c-6.6 0-12-5.4-12-12V101.881c0-6.6 5.4-12 12-12h149.462c6.6 0 12 5.4 12 12v296.238c0 6.6-5.4 12-12 12z"/><path fill="#121331" d="M203.236 89.88c5.735 0 10.791 2.203 12.438 5.42l3.03 5.917c1.292 2.524 5.259 4.253 9.76 4.253h43.072c4.501 0 8.468-1.729 9.76-4.253l3.03-5.917c1.647-3.217 6.703-5.42 12.438-5.42"/><path fill="none" stroke="#121331" stroke-linecap="round" stroke-linejoin="round" stroke-width="12" d="M203.236 89.88c5.735 0 10.791 2.203 12.438 5.42l3.03 5.917c1.292 2.524 5.259 4.253 9.76 4.253h43.072c4.501 0 8.468-1.729 9.76-4.253l3.03-5.917c1.647-3.217 6.703-5.42 12.438-5.42m-86.506 300.59h79.484"/></g><path fill="none" stroke="#08A88A" stroke-linecap="round" stroke-linejoin="round" stroke-width="12" d="M215.069 231.345v41.3l-26.892-41.3v41.3m77.501-41.3h-27.534v41.3m.003-20.646h16.808m58.961-15.961a20.912 20.912 0 0 0-13.65-5.043c-11.597 0-21 9.403-21 21s9.403 21 21 21c5.21 0 9.978-1.898 13.65-5.043" style="display:block"/><g fill="none" stroke="#08A88A" stroke-linecap="round" stroke-linejoin="round" stroke-width="12" style="display:block"><path d="M129.911 283.663A54.425 54.425 0 0 1 118.321 250a54.425 54.425 0 0 1 11.59-33.663m-22.656 84.154C96.368 286.573 89.881 269.043 89.881 250s6.487-36.573 17.374-50.491"/><path d="M161.202 250.5a.807.807 0 0 1 0-1" opacity="0"/><path d="M161.202 250.5a.807.807 0 0 1 0-1" opacity="0"/><path d="M161.202 250.5a.807.807 0 0 1 0-1" opacity="0"/><path d="M161.202 250.5a.807.807 0 0 1 0-1" opacity="0"/><path d="M161.202 250.5a.807.807 0 0 1 0-1" opacity="0"/><path d="M161.202 250.5a.807.807 0 0 1 0-1" opacity="0"/></g><g fill="none" stroke="#08A88A" stroke-linecap="round" stroke-linejoin="round" stroke-width="12" style="display:block"><path d="M369.881 216.337A54.425 54.425 0 0 1 381.471 250a54.425 54.425 0 0 1-11.59 33.663m22.656-84.154c10.887 13.918 17.374 31.448 17.374 50.491s-6.487 36.573-17.374 50.491"/><path d="M338.59 249.5a.807.807 0 0 1 0 1" opacity="0"/><path d="M338.59 249.5a.807.807 0 0 1 0 1" opacity="0"/><path d="M338.59 249.5a.807.807 0 0 1 0 1" opacity="0"/><path d="M338.59 249.5a.807.807 0 0 1 0 1" opacity="0"/><path d="M338.59 249.5a.807.807 0 0 1 0 1" opacity="0"/><path d="M338.59 249.5a.807.807 0 0 1 0 1" opacity="0"/></g></g><path style="display:none"/></g></svg>